@startuml

package CloudLet {
    class "Cloud Management Platform" {
        Policy Based Scheduling
    }
    class "SDI Platform Small" {
        VMWare
        OpenStack
    }
    "Cloud Management Platform" -> "SDI Platform Small"
}
note right
What is the smallest size of the data for a cloudlet to:
Authenticate all users in the cloud federation
All other data required to run any job or at least start a job remotely.

This should help answer the storage requirements for the Cloudlet.
end note

package "Federation Connectivity" {
    package "CIT" {
      note as N1
      TXT Key Management
      end note
    }
    package "Identity Manager" {
      note as N2
      AA Security
      Unified identity
      end note
    }
    package "Data Coordinator" {
      note as N3
      Trusted / Encrypted
      Replication
      DR/BC
      end note
    }
    package "Federated Orchestrated Cloud" {
      note as N4
         Workload movement
         and placement
      end note
    }
}


package Cloud {
    class "SDI Platform"
    class "CMP"
}

note right
Where is data impacted:
1. Data Latency?
2. Does data Gravity have a big play
3. What VMs do you want localized
4. What images are required on the Remote Clouds
5. Updates to Cloudlets.
end note

"Cloud Management Platform" -- "Federation Connectivity"
"CMP" -- "Federation Connectivity"

@enduml
